<?xml version="1.0" encoding="utf-8"?>
<!-- Generator: Adobe Illustrator 19.2.1, SVG Export Plug-In . SVG Version: 6.00 Build 0)  -->
<svg version="1.1" id="layer" xmlns="http://www.w3.org/2000/svg" xmlns:xlink="http://www.w3.org/1999/xlink" x="0px" y="0px"
	 viewBox="0 0 652 652" style="enable-background:new 0 0 652 652;" xml:space="preserve">
<style type="text/css">
	.st0{fill:#E6233A;}
	.st1{fill:#FFFEFE;}
</style>
<path class="st0" d="M189.8,239.2c41.5,0,83.1,0,124.6,0c24.8,0,44.4,19.5,44.4,44.2c0,25.6,0,51.2,0,76.8
	c0,24.8-19.6,44.3-44.4,44.3c-83.2,0-166.5,0-249.7,0c-24.5,0-44.2-19.2-44.3-43.8c-0.1-25.9-0.1-51.8,0-77.6
	c0.1-24.6,19.7-43.8,44.3-43.8C106.5,239.2,148.1,239.2,189.8,239.2z M308.5,335.3c-0.1-0.3-0.3-0.6-0.5-0.9
	c-6.5-19.4-16.6-37.2-25.3-55.7c-0.6-1.3-1.4-1.9-2.9-1.9c-4.3,0.1-8.6,0.1-12.9,0c-1.4,0-2,0.2-2,1.9c0,28.4,0,56.9,0,85.3
	c0,1.5,0.5,2,1.9,1.9c4.4-0.1,9-0.1,13.4,0c2,0,2.7-0.3,2.6-2.6c-0.1-10.6,0.1-21.2-0.1-31.8c-0.1-7.6-0.3-15.2-1.9-22.6
	c-0.1-0.5-0.3-1.4,0.3-1.5c0.9-0.2,0.9,0.8,1.2,1.4c7,19.1,16.9,37,25.5,55.3c0.6,1.3,1.3,1.7,2.7,1.7c4-0.1,7.9-0.1,11.9,0
	c1.7,0,2.1-0.6,2.1-2.2c0-28.2,0-56.3,0-84.5c0-1.7-0.3-2.4-2.2-2.3c-4.3,0.1-8.6,0.2-12.9,0c-2.4-0.1-2.8,0.7-2.8,2.9
	C306.9,298.2,306.3,316.8,308.5,335.3z M54.7,321.6c0,0.5,0,1,0,1.5c0.1,9.4,0.8,18.8,4.4,27.6c2.3,5.8,5.8,11,11.8,13.5
	c10.3,4.3,20.9,4.4,31.1,0c7.7-3.4,11.2-10.5,13.3-18.1c3.3-11.7,3.3-23.6,2.3-35.4c-0.6-7.3-2-14.6-5.5-21.2
	c-3.8-7.5-9.9-12-18.3-13.4c-2.8-0.5-5.7-0.5-8.5-0.5c-14.5,0.1-23.1,6.4-27.5,20.4C55.3,304.3,54.7,312.8,54.7,321.6z M133.4,321.4
	c0,14,0,28.1,0,42.1c0,2,0.5,2.4,2.4,2.4c4.4-0.1,8.7-0.1,13.2,0c1.9,0.1,2.2-0.6,2.2-2.3c-0.1-7.6,0-15.2-0.1-22.7
	c0-1.7,0.5-2.2,2.1-2.2c4.2-0.1,8.4-0.5,12.6-1.3c13.3-2.4,20.5-9.2,22.7-21.3c1.3-6.9,1-13.9-0.6-20.8c-2.1-8.9-7.6-14.5-16.4-16.7
	c-2.3-0.6-4.8-0.9-7.1-1.2c-9.6-0.9-19.1-0.2-28.7-0.5c-2-0.1-2.4,0.6-2.4,2.4C133.4,293.3,133.4,307.3,133.4,321.4z M202.2,321.3
	c0,14.1,0,28.2,0,42.4c0,1.3-0.1,2.2,1.7,2.2c15.4-0.1,30.7-0.1,46.1,0c1.6,0,1.7-0.7,1.7-2c-0.1-3.5-0.1-7.1,0-10.6
	c0.1-2-0.5-2.7-2.6-2.6c-9.1,0.1-18.1,0-27.2,0.1c-1.6,0-2.2-0.3-2.2-2.1c0.1-7.1,0.1-14.3,0-21.5c0-1.9,0.6-2.3,2.3-2.2
	c7.3,0.1,14.7,0,21.9,0.1c2.1,0,2.7-0.6,2.6-2.6c-0.1-2.9-0.1-5.8,0-8.7c0.1-1.9-0.5-2.6-2.4-2.4c-7.5,0.1-14.8,0-22.3,0.1
	c-1.6,0-2.2-0.5-2.2-2.1c0.1-4.8,0.1-9.7,0-14.5c0-2,0.5-2.7,2.6-2.6c8.4,0.1,16.9,0,25.3,0.1c2.6,0,3.6-0.6,3.6-3.3
	c0-3.1,0.2-6.4,0.7-9.6c0.3-2.1-0.3-2.4-2.2-2.4c-15,0.1-30.2,0.1-45.2,0c-2,0-2.6,0.5-2.6,2.6C202.2,293.3,202.2,307.3,202.2,321.3
	z"/>
<path d="M546.4,321.3c0.8-0.6,1-1.4,1.4-2.2c7-13.5,14.1-26.9,21-40.5c0.7-1.4,1.5-2,3.1-1.9c3.1,0.1,6.4,0.1,9.6,0
	c1.6-0.1,2,0.5,2,2c0.6,19.4,1.3,38.7,2,58.2c0.3,8.9,0.6,17.7,1,26.6c0.1,2-0.5,2.4-2.3,2.3c-4.4-0.1-9-0.1-13.4,0
	c-1.4,0-1.9-0.2-2-1.7c-0.2-14.3-0.6-28.6-0.2-42.9c0.1-4.8,0.6-9.7,0.9-15.2c-3.6,7.8-7,15-11,21.9s-7.8,13.9-11.8,20.9
	c-0.2-0.1-0.5-0.1-0.5-0.2c-7.2-12.7-15-25.1-20.9-38.5c-0.2-0.5-0.3-0.9-0.7-1.4c-0.2-0.3-0.2-0.9-0.8-0.7c-0.6,0.1-0.5,0.7-0.3,1
	c2.2,15.5,0.7,31.1,0.9,46.6c0,2.8-0.1,5.7-0.1,8.5c0,1.3-0.5,1.7-1.7,1.7c-4.8-0.1-9.4-0.1-14.2,0c-1.5,0-1.9-0.5-1.7-1.9
	c0.8-21.3,1.5-42.7,2.2-64c0.2-6.8,0.6-13.6,0.7-20.4c0-2.4,0.8-2.8,2.9-2.7c3,0.2,6.1,0.1,9.1,0c1.7-0.1,2.6,0.6,3.3,2.1
	c6.8,13.4,13.6,26.7,20.5,40.1C545.5,319.8,545.9,320.6,546.4,321.3z"/>
<path d="M434,319.6c2.4,0.7,4.5,1.3,6.6,2.1c6.5,2.4,10.4,7.2,11.3,14.1c0.6,4.7,0.5,9.3-0.7,13.9c-2.3,9.6-9.2,13.6-18.1,15.2
	c-4.2,0.7-8.4,1-12.6,1c-8.3,0-16.6,0-24.8,0c-1.5,0-2.1-0.2-2.1-2c0-28.4,0-56.9,0-85.2c0-1.5,0.5-1.9,1.9-1.9
	c10.4,0.2,20.9-0.5,31.2,0.5c3.1,0.2,6.3,0.8,9.3,1.7c9.6,3,14.1,10.4,13.5,21.5C449.2,311.2,445.2,316.2,434,319.6z M411.7,339.7
	c0,3.7,0.1,7.5,0,11.1c0,1.5,0.3,2.1,2,2c3.4-0.1,6.9,0,10.3-0.5c6.4-0.7,9.4-3.4,10.4-9.8c0.3-2.1,0.2-4.3-0.1-6.4
	c-1-5.6-3.8-8.3-9.6-9.2c-3.7-0.6-7.3-0.5-11.1-0.5c-1.4,0-1.9,0.3-1.9,1.9C411.7,332.2,411.7,335.9,411.7,339.7z M411.7,301.8
	c0,3.5,0,6.9,0,10.4c0,1,0.1,1.6,1.4,1.5c3-0.1,6.1,0,9-0.2c5.2-0.5,8.2-2.9,9.2-7.2c0.6-2.4,0.7-4.9,0.5-7.5
	c-0.5-4.8-2.4-7.1-7.1-8.2c-3.8-0.8-7.9-0.6-11.8-0.7c-1.4,0-1.2,0.9-1.2,1.7C411.7,295.1,411.7,298.5,411.7,301.8z"/>
<path d="M468.7,321.1c0-13.9,0-27.7,0-41.6c0-2.2,0.6-2.7,2.7-2.7c4.4,0.1,9,0.1,13.4,0c1.5,0,2.1,0.2,2.1,2
	c-0.1,28.4,0,56.9,0,85.3c0,1.5-0.5,1.9-1.9,1.9c-4.8-0.1-9.4-0.1-14.2,0c-1.7,0-2.1-0.6-2.1-2.2
	C468.7,349.5,468.7,335.3,468.7,321.1z"/>
<path d="M616.8,279.8c-0.8,2.4-1.6,4.8-2.3,7.2c-0.3,0.9-0.6,1.7-1.9,1.7s-1.5-0.7-1.9-1.6c-0.7-2.4-1.5-4.9-2.7-7.3
	c-0.1,2.4-0.3,4.9-0.5,7.3c0,1-0.1,1.7-1.5,1.7c-1.5,0-1-1-0.9-1.9c0.1-2.9,0.3-5.8,0.7-8.7c0.1-0.8-0.2-2.1,1.3-2
	c1.3,0.1,2.7-0.6,3.3,1.5c0.6,2.3,1.5,4.4,2.4,7c0.9-2.6,1.9-4.8,2.4-7.2c0.5-2,1.9-1.3,3-1.4c1.6-0.1,1.3,1,1.3,1.9
	c0.2,3,0.5,6.1,0.7,9c0,0.7,0.5,1.6-0.9,1.6c-1,0-1.5-0.2-1.6-1.4c-0.1-2.6-0.2-5-0.5-7.6C617.1,279.8,617,279.8,616.8,279.8z"/>
<path d="M599.2,276.3c1.4,0,2.8,0,4.1,0c0.6,0,1.3,0,1.3,0.9c0,0.8-0.3,1.4-1.2,1.2c-3.3-0.7-2.9,1.4-2.8,3.4c0.1,1.7,0,3.6,0,5.4
	c0,0.9,0.1,1.6-1.3,1.6c-1.3,0-1.4-0.6-1.4-1.5c0-2.2-0.1-4.4,0-6.8c0.1-1.5-0.1-2.4-2-2.2c-0.8,0.1-2.1,0.6-2-1
	c0.1-1.6,1.4-0.8,2.2-0.9C597.1,276.2,598.1,276.3,599.2,276.3z"/>
<path class="st1" d="M308.5,335.3c-2.2-18.5-1.5-37.1-1.6-55.6c0-2.2,0.3-3,2.8-2.9c4.3,0.2,8.6,0.1,12.9,0c1.9-0.1,2.2,0.6,2.2,2.3
	c0,28.2,0,56.3,0,84.5c0,1.6-0.3,2.2-2.1,2.2c-4-0.1-7.9-0.1-11.9,0c-1.4,0-2.1-0.5-2.7-1.7c-8.6-18.4-18.5-36.1-25.5-55.3
	c-0.2-0.6-0.2-1.6-1.2-1.4c-0.8,0.1-0.5,1-0.3,1.5c1.5,7.5,1.7,15,1.9,22.6c0.2,10.6,0,21.2,0.1,31.8c0,2.1-0.7,2.6-2.6,2.6
	c-4.4-0.1-9-0.1-13.4,0c-1.5,0-1.9-0.5-1.9-1.9c0-28.4,0-56.9,0-85.3c0-1.5,0.6-1.9,2-1.9c4.3,0.1,8.6,0.1,12.9,0
	c1.5,0,2.3,0.6,2.9,1.9c8.7,18.4,18.8,36.3,25.3,55.7C308.2,334.7,308.3,335,308.5,335.3z"/>
<path class="st1" d="M54.7,321.6c0-8.6,0.6-17.3,3.3-25.5c4.3-14,12.9-20.3,27.5-20.3c2.8,0,5.7,0,8.5,0.5
	c8.4,1.4,14.3,5.9,18.3,13.4c3.5,6.6,4.9,13.8,5.5,21.1c0.9,11.9,0.9,23.8-2.3,35.4c-2.2,7.7-5.6,14.8-13.3,18.1
	c-10.3,4.5-20.9,4.3-31.1,0c-5.9-2.6-9.4-7.7-11.8-13.5c-3.7-8.9-4.4-18.2-4.5-27.6C54.7,322.5,54.7,322,54.7,321.6z M100.3,319.2
	c0-1.4,0.1-2.8,0-4.1c-0.5-6.6-0.7-13.4-3.4-19.7c-2-4.7-5.5-7.1-10.7-7.1c-5.1,0-8.6,2.6-10.5,7.3c-0.7,1.9-1.3,3.7-1.6,5.7
	c-2.1,11.5-2,23.1-0.7,34.7c0.5,4.4,1.4,8.9,3.7,12.8c2.1,3.7,5.4,5.6,9.8,5.6c4.3-0.1,7.3-2.1,9.3-5.8c1-1.9,1.7-4,2.2-6.1
	C100.3,335,100.4,327.1,100.3,319.2z"/>
<path class="st1" d="M133.4,321.4c0-14,0-28.1,0-42.1c0-1.9,0.5-2.4,2.4-2.4c9.6,0.2,19.1-0.5,28.7,0.5c2.4,0.2,4.8,0.6,7.1,1.2
	c8.9,2.2,14.3,7.8,16.4,16.7c1.6,6.9,1.9,13.9,0.6,20.8c-2.2,12.1-9.4,18.9-22.7,21.3c-4.2,0.8-8.4,1.2-12.6,1.3
	c-1.6,0-2.2,0.6-2.1,2.2c0.1,7.6,0,15.2,0.1,22.7c0,1.7-0.3,2.3-2.2,2.3c-4.4-0.1-8.7-0.1-13.2,0c-2,0.1-2.4-0.5-2.4-2.4
	C133.4,349.5,133.4,335.4,133.4,321.4z M151.1,308.4c0,5.2,0,10.5,0,15.7c0,1.5,0.3,2.1,2,2c2.9-0.2,5.8-0.5,8.6-1.3
	c4.1-1.2,7-3.7,8.3-7.8c2-6.4,2-12.9,0.1-19.4c-1.3-4.4-4.5-6.5-9-6.9c-2.4-0.2-5,0-7.5-0.2c-2-0.1-2.7,0.3-2.6,2.4
	C151.2,298.2,151.1,303.4,151.1,308.4z"/>
<path class="st1" d="M202.2,321.3c0-14,0-28,0-41.9c0-2.1,0.6-2.6,2.6-2.6c15,0.1,30.2,0.1,45.2,0c1.9,0,2.6,0.3,2.2,2.4
	c-0.5,3.1-0.7,6.3-0.7,9.6c0,2.7-1,3.4-3.6,3.3c-8.4-0.1-16.9,0-25.3-0.1c-2.1,0-2.6,0.6-2.6,2.6c0.1,4.8,0.1,9.7,0,14.5
	c0,1.7,0.5,2.2,2.2,2.1c7.5-0.1,14.8,0,22.3-0.1c2,0,2.6,0.6,2.4,2.4c-0.1,2.9-0.1,5.8,0,8.7c0.1,2-0.3,2.7-2.6,2.6
	c-7.3-0.1-14.7,0-21.9-0.1c-1.7,0-2.3,0.3-2.3,2.2c0.1,7.1,0.1,14.3,0,21.5c0,1.7,0.6,2.1,2.2,2.1c9.1-0.1,18.1,0,27.2-0.1
	c2.1,0,2.6,0.6,2.6,2.6c-0.1,3.5-0.1,7.1,0,10.6c0,1.3-0.1,2-1.7,2c-15.4,0-30.7-0.1-46.1,0c-2,0-1.7-0.9-1.7-2.2
	C202.2,349.5,202.2,335.4,202.2,321.3z"/>
<path class="st0" d="M100.3,319.2c0.1,7.8,0,15.6-1.9,23.3c-0.5,2.1-1.2,4.1-2.2,6.1c-2,3.7-5.1,5.7-9.3,5.8
	c-4.4,0.1-7.6-1.7-9.8-5.6c-2.2-4-3.1-8.4-3.7-12.8c-1.3-11.7-1.4-23.2,0.7-34.7c0.3-2,0.9-3.8,1.6-5.7c1.9-4.8,5.4-7.2,10.5-7.3
	c5.1,0,8.6,2.4,10.7,7.1c2.7,6.3,3,13.1,3.4,19.7C100.4,316.5,100.3,317.9,100.3,319.2z"/>
<path class="st0" d="M151.1,308.4c0-5.1,0.1-10.1,0-15.3c-0.1-2.1,0.7-2.7,2.6-2.4c2.4,0.2,5,0,7.5,0.2c4.4,0.3,7.7,2.6,9,6.9
	c1.9,6.4,1.9,12.9-0.1,19.4c-1.3,4.1-4.2,6.5-8.3,7.8c-2.8,0.8-5.7,1-8.6,1.3c-1.6,0.1-2-0.5-2-2
	C151.2,318.9,151.1,313.6,151.1,308.4z"/>
</svg>
