<svg xmlns="http://www.w3.org/2000/svg" viewBox="0 0 32 32" id="down-arrow"><defs><linearGradient id="a" x1="16" x2="16" y1="30" y2="2" gradientUnits="userSpaceOnUse"><stop offset="0" stop-color="#43cbff"></stop><stop offset="1" stop-color="#9708cc"></stop></linearGradient></defs><path fill="url(#a)" d="M16 2a14 14 0 1 0 14 14A14 14 0 0 0 16 2Zm0 26a12 12 0 1 1 12-12 12 12 0 0 1-12 12Zm6.94-11.06h-2.46v-10a1 1 0 0 0-1-1h-7a1 1 0 0 0-1 1v10H9.06a1 1 0 0 0-.92.61 1 1 0 0 0 .21 1.09l6.56 6.75.37.39a1 1 0 0 0 1.44 0l.38-.39 6.55-6.75a1 1 0 0 0 .21-1.09 1 1 0 0 0-.92-.61ZM16 23.65l-4.57-4.71h1.09a1 1 0 0 0 1-1v-10h5V18a1 1 0 0 0 1 1h1.1Z"></path></svg>